<svg xmlns="http://www.w3.org/2000/svg" width="36" height="40"><defs><clipPath id="a"><path transform="translate(74 10)" fill="#fff" stroke="#707070" d="M0 0h36v40H0z"/></clipPath></defs><g transform="translate(-74 -10)" clip-path="url(#a)"><path d="M79.329 39.183a2.209 2.209 0 0 1-.171-.295 1.355 1.355 0 0 1 .171.295z" fill="#dd0333"/><path d="M91.136 25.096c.111 0 .224 0 .335.006a7.4 7.4 0 0 1 3.221.8c.743.409 1.043.837 1.075 1.1l.029.243.118.215a16.035 16.035 0 0 1 1.65 3.632l.063.427c.137.931.366 2.491.621 3.79.03.147.058.292.087.43v.008c.308 1.45.545 2.018 1 2.362a4.958 4.958 0 0 1 .546 1.017 3.5 3.5 0 0 1-.726 2.108 9.9 9.9 0 0 1-3.3 3.079 12.262 12.262 0 0 1-5.693 1.642c-.227.011-.456.017-.682.017-.168 0-.338 0-.5-.009a13.408 13.408 0 0 1-3.619-.633 13.9 13.9 0 0 1-4.887-2.782 12.357 12.357 0 0 1-2.908-3.69l-.058-.121-.011-.021a2.726 2.726 0 0 0-.2-.374.412.412 0 0 1-.024-.151c.009-.265.378-.7 1.18-1.06a5.609 5.609 0 0 1 .564-.219l.529-.176.228-.509a3 3 0 0 0 .144-.4l.042-.149.005-.155a9.614 9.614 0 0 1 1.271-4.514 8.308 8.308 0 0 1 3.28-3.168 8.2 8.2 0 0 1 1.8-.7l.54-.138.263-.492c.368-.688 1.9-1.419 4.026-1.419m0-1.266c-2.44 0-4.487.863-5.142 2.089a9.408 9.408 0 0 0-2.074.8 10.118 10.118 0 0 0-5.225 8.758 1.733 1.733 0 0 1-.082.23 6.923 6.923 0 0 0-.688.268c-1.156.525-1.891 1.29-1.923 2.167a1.728 1.728 0 0 0 .178.818 1.37 1.37 0 0 1 .171.295l.074.156a14.795 14.795 0 0 0 12.505 7.815q.273.01.551.01.368 0 .743-.018a13.575 13.575 0 0 0 6.269-1.819c3.385-1.991 5.021-5.094 4.6-6.66a5.143 5.143 0 0 0-.98-1.635 4.168 4.168 0 0 1-.534-1.624l-.084-.42c-.3-1.5-.561-3.4-.675-4.16a18.471 18.471 0 0 0-1.793-4.054c-.192-1.581-2.563-2.9-5.506-3.01-.128 0-.255-.007-.381-.007z" fill="#dd0333"/><path d="M99.575 35.481l-.084-.42c.031.141.06.28.084.42zM104.433 11.271l-10.868 8.56 1.53 1.9 13.186-4.157zM90.439 19.711l-2.448 1.35-10.993-3.36 9.2-6.7zM87.442 22.653l.285.97-1.125.574a2.923 2.923 0 0 0-1.07.979 22.026 22.026 0 0 0-3.36 1.682l-4.254-1.754zM91.338 23.271c.4.014 1.175.072 1.633.141a.249.249 0 0 0 .283-.212v-.005a.258.258 0 0 0-.031-.164l-.14-.243a2.407 2.407 0 0 1-.223-.562 1.185 1.185 0 0 0-1.057-.779l-.8-.029a.964.964 0 0 0-.929.611 2.117 2.117 0 0 1-.421.69l-.159.169a.244.244 0 0 0-.064.185.24.24 0 0 0 .257.218 20.1 20.1 0 0 1 1.651-.02z" fill="#dd0333"/><path d="M97.161 27.178c2.054.788 5.961 5.831 4.373 11.266a1.077 1.077 0 0 1-1.447.682 15.194 15.194 0 0 0-4.9-1.294 52.231 52.231 0 0 0-7.483 1.093 1.083 1.083 0 0 1-.906-.222 5.159 5.159 0 0 1-1.544-5.634c1.115-4.232 1.944-5.624 3.255-6.242s6.455-.493 8.652.351zM86.152 48.948l2.75.4a.876.876 0 0 0 .429-.014l11.629-5.414a.34.34 0 0 0-.192-.373l-2.75-.4c-.087-.032-.19-.024-.187-.057l-11.629 5.414c-.254.172-.236.375-.05.444zM76.291 47.397l2.665.553a.336.336 0 0 0 .27-.02l13.76-6.783a.194.194 0 0 0-.032-.367l-2.665-.553a.333.333 0 0 0-.27.02l-13.761 6.782a.194.194 0 0 0 .033.368z" fill="#dd0333"/><path d="M87.014 40.404a3.054 3.054 0 0 0-.69 1.925l-1.581.842a4.1 4.1 0 0 1 .9-3.767.4.4 0 0 1 .519-.083l.765.481a.4.4 0 0 1 .087.602zM82.937 42.574a3.053 3.053 0 0 0-.69 1.925l-1.582.842a4.1 4.1 0 0 1 .9-3.766.4.4 0 0 1 .52-.083l.765.481a.4.4 0 0 1 .087.601zM95.233 23.07l6.467 2.475-1.91 1.93-1.944-1.511a4.833 4.833 0 0 0-1.08-1.079c-.547-.34-2.036-1.194-2.036-1.194z" fill="#dd0333"/><g opacity=".39"><path d="M96.724 27.811a11.955 11.955 0 0 0-2.765-.519l-3.024 9.881a29.572 29.572 0 0 1 4.046-.456 13.978 13.978 0 0 1 4.323 1.081.963.963 0 0 0 1.277-.57c1.401-4.544-2.045-8.759-3.857-9.417zM89.094 27.519c-1.158.516-1.888 1.68-2.871 5.217a4.314 4.314 0 0 0 .544 3.861l2.822-9.222a2.52 2.52 0 0 0-.495.144zM90.496 27.248l-3.079 10.059c.058.05.114.1.166.137a.988.988 0 0 0 .6.2l3.2-10.444c-.314.013-.613.025-.887.048z" fill="none"/><path d="M89.588 27.374l-2.822 9.222a4.192 4.192 0 0 0 .651.711l3.078-10.059a7.5 7.5 0 0 0-.907.126zM91.379 27.202l-3.2 10.444a.988.988 0 0 0 .2-.017c.521-.1 1.487-.282 2.553-.457l3.024-9.881a22.574 22.574 0 0 0-2.577-.089z" fill="#fff"/></g></g></svg>