<svg xmlns="http://www.w3.org/2000/svg" width="148" height="48"><defs><clipPath id="a"><path transform="translate(24 12)" fill="#fff" stroke="#707070" d="M0 0h148v48H0z"/></clipPath></defs><g transform="translate(-24 -12)" clip-path="url(#a)"><g fill="#2a2d33"><path d="M63.582 27.241h3.527v6.687h6.906v-6.687h3.537V43.72h-3.537v-6.664h-6.906v6.664h-3.527zM90.46 38.924h-7.9a2.833 2.833 0 0 0 .819 1.758 2.628 2.628 0 0 0 1.92.677 3.064 3.064 0 0 0 2.677-1.417l2.131 1.889a6.667 6.667 0 0 1-8.146 1.312 5.236 5.236 0 0 1-2.015-2.22 6.817 6.817 0 0 1-.661-2.986 7.18 7.18 0 0 1 .629-2.971 5.362 5.362 0 0 1 1.936-2.288 5.66 5.66 0 0 1 3.238-.881 5.218 5.218 0 0 1 3.16.9 5.074 5.074 0 0 1 1.769 2.262 7.66 7.66 0 0 1 .54 2.844 8.144 8.144 0 0 1-.097 1.121zm-7.022-3.9a2.789 2.789 0 0 0-.84 1.432h4.891a3.4 3.4 0 0 0-.115-.567 1.781 1.781 0 0 0-.855-1.092 2.808 2.808 0 0 0-1.412-.367 2.357 2.357 0 0 0-1.672.595zM93.269 43.315a2.094 2.094 0 0 1-.54-.908 6.009 6.009 0 0 1-.184-1.716v-13.45h3.16v12.7a6.517 6.517 0 0 0 .036.85.883.883 0 0 0 .1.326.606.606 0 0 0 .267.188 1.1 1.1 0 0 0 .363.053 2.156 2.156 0 0 0 .6-.094l.451 2.341a6.238 6.238 0 0 1-1.065.273 6.445 6.445 0 0 1-1.107.105 2.949 2.949 0 0 1-2.081-.668zM99.661 30.721a2.015 2.015 0 0 1-.735-.73 1.946 1.946 0 0 1-.273-1.007 1.882 1.882 0 0 1 .273-.981 2.079 2.079 0 0 1 .735-.73 1.959 1.959 0 0 1 1.995 0 2.077 2.077 0 0 1 .735.73 1.882 1.882 0 0 1 .273.981 1.922 1.922 0 0 1-.273 1 2.075 2.075 0 0 1-.735.729 1.925 1.925 0 0 1-1 .273 1.955 1.955 0 0 1-.995-.265zm-.577 1.349h3.145v11.651H99.08zM109.786 43.726a3.779 3.779 0 0 1-1.3-.7h-.262l-.483.692h-2.645V27.241h3.127v5.489h.262a3.691 3.691 0 0 1 1.265-.687 5.251 5.251 0 0 1 4.261.483 4.563 4.563 0 0 1 1.717 2.1 9.4 9.4 0 0 1 0 6.539 4.561 4.561 0 0 1-1.7 2.094 4.756 4.756 0 0 1-2.656.725 5.059 5.059 0 0 1-1.586-.258zm2.719-3.254a5.285 5.285 0 0 0 0-5.148 2.274 2.274 0 0 0-1.932-.892 2.306 2.306 0 0 0-1.942.887 5.245 5.245 0 0 0-.005 5.164 2.315 2.315 0 0 0 1.947.876 2.271 2.271 0 0 0 1.931-.888zM119.153 43.315a2.1 2.1 0 0 1-.541-.908 6.01 6.01 0 0 1-.184-1.716v-13.45h3.16v12.7a6.363 6.363 0 0 0 .037.85.859.859 0 0 0 .1.326.606.606 0 0 0 .267.188 1.1 1.1 0 0 0 .362.053 2.164 2.164 0 0 0 .6-.094l.451 2.341a6.27 6.27 0 0 1-1.065.273 6.458 6.458 0 0 1-1.108.105 2.946 2.946 0 0 1-2.079-.668zM126.838 43.19a5.352 5.352 0 0 1-2.073-2.182 6.71 6.71 0 0 1-.724-3.144 6.624 6.624 0 0 1 .724-3.123 5.3 5.3 0 0 1 2.073-2.162 6.7 6.7 0 0 1 6.282 0 5.3 5.3 0 0 1 2.067 2.162 6.617 6.617 0 0 1 .725 3.123 6.7 6.7 0 0 1-.725 3.144 5.339 5.339 0 0 1-2.073 2.182 6.607 6.607 0 0 1-6.276 0zm5.248-2.818a4.388 4.388 0 0 0 .666-2.509 4.249 4.249 0 0 0-.666-2.467 2.788 2.788 0 0 0-4.225.005 4.23 4.23 0 0 0-.672 2.461 4.368 4.368 0 0 0 .672 2.5 2.75 2.75 0 0 0 4.225.005zM139.821 43.201a5.215 5.215 0 0 1-1.942-2.172 7.039 7.039 0 0 1-.688-3.165 6.9 6.9 0 0 1 .7-3.17 5.153 5.153 0 0 1 1.963-2.136 5.52 5.52 0 0 1 2.9-.761 5.8 5.8 0 0 1 2.362.467 4.789 4.789 0 0 1 1.773 1.323 4.913 4.913 0 0 1 1 1.989l-2.834.808a2.742 2.742 0 0 0-.781-1.443 2.144 2.144 0 0 0-1.517-.53 1.955 1.955 0 0 0-1.811.961 4.83 4.83 0 0 0-.572 2.493 5.011 5.011 0 0 0 .572 2.525 1.94 1.94 0 0 0 1.811.991 2.1 2.1 0 0 0 1.506-.551 2.826 2.826 0 0 0 .792-1.474l2.866.787a5.29 5.29 0 0 1-1.034 2.042 4.775 4.775 0 0 1-1.779 1.333 5.817 5.817 0 0 1-2.372.467 5.385 5.385 0 0 1-2.915-.784zM149.816 27.241h3.149v9.248h.095l3.947-4.419h4.062l-4.062 4.388 4.492 7.263h-3.684l-3.075-5.111h-.146l-1.627 1.7v3.411h-3.149zM164.377 43.568a5.188 5.188 0 0 1-1.831-1.17 4.285 4.285 0 0 1-1.071-1.732l2.467-1.1a2.643 2.643 0 0 0 1.024 1.3 2.741 2.741 0 0 0 1.579.5 1.755 1.755 0 0 0 1.028-.278.919.919 0 0 0 .4-.8.875.875 0 0 0-.367-.751 3.468 3.468 0 0 0-1.133-.467q-.052-.01-.672-.178a8.876 8.876 0 0 1-1.406-.535 4.154 4.154 0 0 1-1.491-1.123 2.809 2.809 0 0 1-.566-1.837 3.3 3.3 0 0 1 .572-1.948 3.531 3.531 0 0 1 1.558-1.227 6.011 6.011 0 0 1 5 .278 4.144 4.144 0 0 1 1.763 1.847l-2.361 1.312a3.161 3.161 0 0 0-1.018-1 2.415 2.415 0 0 0-1.28-.388 1.6 1.6 0 0 0-.877.231.713.713 0 0 0-.362.63.6.6 0 0 0 .33.556 5.184 5.184 0 0 0 1.055.4q.828.231 1.417.436a6.836 6.836 0 0 1 1.06.467 3.227 3.227 0 0 1 1.847 3.012 3.96 3.96 0 0 1-.546 2.089 3.692 3.692 0 0 1-1.533 1.4 4.983 4.983 0 0 1-2.278.5 6.343 6.343 0 0 1-2.308-.424z"/></g><path d="M27.856 41.183a2.209 2.209 0 0 1-.171-.295 1.355 1.355 0 0 1 .171.295z" fill="#dd0333"/><path d="M39.662 27.096c.111 0 .224 0 .335.006a7.4 7.4 0 0 1 3.221.8c.743.409 1.043.837 1.075 1.1l.029.243.118.215a16.035 16.035 0 0 1 1.65 3.632l.063.427c.137.931.366 2.491.621 3.79.03.147.058.292.087.43v.008c.308 1.45.545 2.018 1 2.362a4.958 4.958 0 0 1 .546 1.017 3.5 3.5 0 0 1-.726 2.108 9.9 9.9 0 0 1-3.3 3.079 12.262 12.262 0 0 1-5.693 1.642c-.227.011-.456.017-.682.017-.168 0-.338 0-.5-.009a13.408 13.408 0 0 1-3.619-.633A13.9 13.9 0 0 1 29 44.548a12.357 12.357 0 0 1-2.908-3.69l-.058-.121-.011-.021a2.726 2.726 0 0 0-.2-.374.412.412 0 0 1-.024-.151c.009-.265.378-.7 1.18-1.06a5.609 5.609 0 0 1 .564-.219l.529-.176.228-.509a3 3 0 0 0 .144-.4l.042-.149.005-.155a9.614 9.614 0 0 1 1.271-4.514 8.308 8.308 0 0 1 3.28-3.168 8.2 8.2 0 0 1 1.8-.7l.54-.138.263-.492c.368-.688 1.9-1.419 4.026-1.419m0-1.266c-2.44 0-4.487.863-5.142 2.089a9.408 9.408 0 0 0-2.074.8 10.118 10.118 0 0 0-5.225 8.758 1.733 1.733 0 0 1-.082.23 6.923 6.923 0 0 0-.688.268c-1.156.525-1.891 1.29-1.923 2.167a1.728 1.728 0 0 0 .178.818 1.37 1.37 0 0 1 .171.295l.074.156a14.795 14.795 0 0 0 12.505 7.815q.273.01.551.01.368 0 .743-.018a13.575 13.575 0 0 0 6.269-1.819c3.385-1.991 5.021-5.094 4.6-6.66a5.143 5.143 0 0 0-.98-1.635 4.168 4.168 0 0 1-.534-1.624l-.084-.42c-.3-1.5-.561-3.4-.675-4.16a18.471 18.471 0 0 0-1.793-4.054c-.192-1.581-2.563-2.9-5.506-3.01-.128 0-.255-.007-.381-.007z" fill="#dd0333"/><path d="M48.102 37.481l-.084-.42c.031.141.06.28.084.42zM52.96 13.272l-10.868 8.56 1.53 1.9 13.186-4.157zM38.966 21.711l-2.448 1.35-10.993-3.36 9.2-6.7zM35.969 24.653l.285.97-1.125.574a2.923 2.923 0 0 0-1.07.979 22.026 22.026 0 0 0-3.36 1.682l-4.254-1.754zM39.865 25.271c.4.014 1.175.072 1.633.141a.249.249 0 0 0 .283-.212v-.005a.258.258 0 0 0-.031-.164l-.14-.243a2.407 2.407 0 0 1-.223-.562 1.185 1.185 0 0 0-1.057-.779l-.8-.029a.964.964 0 0 0-.929.611 2.117 2.117 0 0 1-.421.69l-.159.169a.244.244 0 0 0-.064.185.24.24 0 0 0 .257.218 20.1 20.1 0 0 1 1.651-.02z" fill="#dd0333"/><path d="M45.688 29.179c2.054.788 5.961 5.831 4.373 11.266a1.077 1.077 0 0 1-1.447.682 15.194 15.194 0 0 0-4.9-1.294 52.231 52.231 0 0 0-7.483 1.093 1.083 1.083 0 0 1-.906-.222 5.159 5.159 0 0 1-1.544-5.634c1.115-4.232 1.944-5.624 3.255-6.242s6.455-.493 8.652.351zM34.679 50.948l2.75.4a.876.876 0 0 0 .429-.014l11.629-5.414a.34.34 0 0 0-.192-.373l-2.75-.4c-.087-.032-.19-.024-.187-.057l-11.629 5.414c-.254.172-.236.375-.05.444zM24.818 49.397l2.665.553a.336.336 0 0 0 .27-.02l13.76-6.783a.194.194 0 0 0-.032-.367l-2.665-.553a.333.333 0 0 0-.27.02l-13.761 6.782a.194.194 0 0 0 .033.368z" fill="#dd0333"/><path d="M35.541 42.404a3.054 3.054 0 0 0-.69 1.925l-1.581.842a4.1 4.1 0 0 1 .9-3.767.4.4 0 0 1 .519-.083l.765.481a.4.4 0 0 1 .087.602zM31.464 44.574a3.053 3.053 0 0 0-.69 1.925l-1.582.842a4.1 4.1 0 0 1 .9-3.766.4.4 0 0 1 .52-.083l.765.481a.4.4 0 0 1 .087.601zM43.76 25.07l6.467 2.475-1.91 1.93-1.944-1.511a4.833 4.833 0 0 0-1.08-1.079c-.547-.34-2.036-1.194-2.036-1.194z" fill="#dd0333"/><g opacity=".39"><path d="M45.251 29.811a11.955 11.955 0 0 0-2.765-.519l-3.024 9.881a29.572 29.572 0 0 1 4.046-.456 13.978 13.978 0 0 1 4.323 1.081.963.963 0 0 0 1.277-.57c1.401-4.544-2.045-8.759-3.857-9.417zM37.621 29.519c-1.158.516-1.888 1.68-2.871 5.217a4.314 4.314 0 0 0 .544 3.861l2.822-9.222a2.52 2.52 0 0 0-.495.144zM39.023 29.248l-3.079 10.059c.058.05.114.1.166.137a.988.988 0 0 0 .6.2l3.2-10.444c-.314.013-.613.025-.887.048z" fill="none"/><path d="M38.115 29.374l-2.822 9.222a4.192 4.192 0 0 0 .651.711l3.078-10.059a7.5 7.5 0 0 0-.907.126zM39.906 29.202l-3.2 10.444a.988.988 0 0 0 .2-.017c.521-.1 1.487-.282 2.553-.457l3.024-9.881a22.574 22.574 0 0 0-2.577-.089z" fill="#fff"/></g></g></svg>